<?xml version="1.0" standalone="no"?>
<!DOCTYPE svg PUBLIC "-//W3C//DTD SVG 20010904//EN"
 "http://www.w3.org/TR/2001/REC-SVG-20010904/DTD/svg10.dtd">
<svg version="1.0" xmlns="http://www.w3.org/2000/svg"
 width="512.000000pt" height="512.000000pt" viewBox="0 0 512.000000 512.000000"
 preserveAspectRatio="xMidYMid meet">
<metadata>
Created by potrace 1.14, written by Peter Selinger 2001-2017
</metadata>
<g transform="translate(0.000000,512.000000) scale(0.100000,-0.100000)"
fill="#000000" stroke="none">
<path d="M582 5101 c-73 -25 -140 -78 -180 -142 -43 -71 -51 -107 -68 -324 -5
-63 -5 -486 0 -530 3 -22 8 -69 11 -105 13 -144 44 -327 78 -458 l23 -93 -21
-32 c-69 -101 -183 -359 -248 -562 -48 -149 -113 -433 -131 -570 -3 -22 -7
-49 -10 -60 -2 -11 -7 -51 -11 -90 -4 -38 -9 -81 -11 -95 -13 -75 -12 -380 0
-445 51 -254 226 -546 481 -800 394 -395 899 -645 1510 -750 22 -4 49 -9 60
-11 109 -19 273 -28 490 -29 189 0 409 10 425 20 3 1 32 6 65 10 55 6 210 35
295 55 19 5 46 11 60 14 196 44 511 176 728 304 422 251 761 617 916 990 57
136 71 210 71 372 0 137 -11 336 -20 363 -2 6 -6 32 -9 57 -42 399 -197 899
-364 1180 -46 77 -47 81 -38 115 50 196 83 400 102 625 6 73 5 449 -1 525 -3
39 -8 101 -11 140 -9 124 -61 218 -154 284 -56 38 -96 51 -178 56 -125 8 -506
-121 -762 -258 -184 -98 -355 -215 -465 -319 l-51 -47 -65 14 c-62 12 -191 30
-304 40 -124 11 -451 6 -560 -10 -16 -2 -56 -7 -88 -10 -33 -4 -88 -13 -124
-20 -65 -14 -66 -13 -92 11 -51 49 -207 171 -281 220 -219 144 -524 279 -800
353 -121 33 -197 36 -268 12z"/>
</g>
</svg>
