<!DOCTYPE svg PUBLIC "-//W3C//DTD SVG 1.1//EN" "http://www.w3.org/Graphics/SVG/1.1/DTD/svg11.dtd">

<!-- Uploaded to: SVG Repo, www.svgrepo.com, Transformed by: SVG Repo Mixer Tools -->
<svg fill="#000000" version="1.1" id="Capa_1" xmlns="http://www.w3.org/2000/svg" xmlns:xlink="http://www.w3.org/1999/xlink" viewBox="-9.57 -9.57 114.84 114.84" xml:space="preserve">

<g id="SVGRepo_bgCarrier" stroke-width="0">

<path transform="translate(-9.57, -9.57), scale(3.5887500000000006)" d="M16,28.466059831281502C19.07678021976316,29.191683602040115,22.500770668469876,30.292787954473944,25.247761446480624,28.72845165976628C28.05261789706417,27.131162443429638,29.611119022744646,23.739919115986247,29.93802058635002,20.528737415004844C30.236430077883956,17.597435747174053,28.206870261658835,15.099857163158948,26.9042110587037,12.457007055146498C25.813560174081275,10.244281883674665,24.79906334174658,8.060789980047382,22.974311539725264,6.400683688988675C20.959102885514014,4.567305275033305,18.72122228332815,2.405174360473379,16,2.5366719402372837C13.298519120040503,2.667215556490001,11.775067643052498,5.5911659441592265,9.498796317458662,7.051860790049483C7.012967148734193,8.647029965926276,3.586756159129492,8.938937638974995,2.0718154994179656,11.47445852299501C0.4358610146086386,14.212517426457346,-0.22999703692212248,17.97729144871438,1.298276650197657,20.776879484918C2.802843831545884,23.533040450108366,6.675299224553509,23.54928668589177,9.457798591109533,25.004567739277874C11.698853703164513,26.176666853968552,13.53846878300335,27.88553557022309,16,28.466059831281502" fill="#ff9a05" strokewidth="0"/>

</g>

<g id="SVGRepo_tracerCarrier" stroke-linecap="round" stroke-linejoin="round"/>

<g id="SVGRepo_iconCarrier"> <g> <g> <circle cx="73.874" cy="9.997" r="9.997"/> <path d="M78.339,20.601l-0.029-0.004c0,0-1.194-0.25-2.267-0.274c-1.118-0.026-2.173,0.289-2.173,0.289 c-2.753,0.673-5.674,2.659-6.619,5.628c-1.881,7.276-13.287,10.293-17.129,10.857c-2.122,0.304-3.596,2.271-3.292,4.392 c0.277,1.936,1.938,3.332,3.837,3.332c0.184,0,0.368-0.013,0.555-0.04c0.514-0.073,8.935-1.345,15.705-6.178L66.92,50.337 c-0.002,3.259,2.121,5.562,4.694,6.771l0.02,33.066c0.002,2.922,2.371,5.289,5.293,5.289h0.002c2.924,0,5.293-2.373,5.291-5.295 l-0.022-34.049c1.813-1.344,3.067-3.314,3.069-5.771l0.013-22.067C85.281,24.169,81.701,21.427,78.339,20.601z"/> <path d="M47.929,92.531L43.486,70.57l-12.652,2.484l-13.118,19.26h-5.605c-0.935,0-1.692,0.757-1.692,1.691 c0,0.936,0.757,1.692,1.692,1.692l26.095-0.024c1.435,0,2.597-1.189,2.595-2.625c-0.001-1.434-1.164-2.595-2.598-2.595 c-0.001,0-0.002,0-0.002,0l-2.336,0.002l4.471-8.903l2.506,12.037c0.255,1.227,1.336,2.068,2.541,2.068 c0.175,0,0.354-0.018,0.532-0.055C47.319,95.311,48.221,93.936,47.929,92.531z"/> <path d="M41.185,57.547c-2.049-0.025-3.531-0.896-5.57-0.641c-0.355,0.045-0.715,0.09-1.063,0.171 c-0.208,0.048-0.336,0-0.457-0.163c-0.416-0.559-0.833-1.113-1.261-1.662c-0.768-0.98-1.796-1.568-3.025-1.433 c-0.494,0.053-2.595,0.687-1.012,3.677c0.344,0.65,0.637,1.342,0.828,2.051l1.946,11.038l11.837-2.209c0,0-0.01-3.015,0.286-3.116 c0.409-0.14,0.819-0.283,1.229-0.426c1.197-0.415,2.247-1.062,3.13-1.977c1.502-1.553,2.381-3.918,0.781-5.961 C47.365,55.021,41.878,57.555,41.185,57.547z"/> </g> </g> </g>

</svg>