<!DOCTYPE svg PUBLIC "-//W3C//DTD SVG 1.1//EN" "http://www.w3.org/Graphics/SVG/1.1/DTD/svg11.dtd">

<!-- Uploaded to: SVG Repo, www.svgrepo.com, Transformed by: SVG Repo Mixer Tools -->
<svg fill="#000000"  version="1.1" id="Capa_1" xmlns="http://www.w3.org/2000/svg" xmlns:xlink="http://www.w3.org/1999/xlink" viewBox="-46.49 -46.49 557.85 557.85" xml:space="preserve" stroke="#000000" transform="rotate(0)">

<g id="SVGRepo_bgCarrier" stroke-width="0" transform="translate(0,0), scale(1)">

<path transform="translate(-46.49, -46.49), scale(17.4328125)" d="M16,29.427876878529787C18.63276980490298,28.811473387591413,19.91144755835229,25.981749758997175,22.049310459494258,24.32616154776506C24.088911957360114,22.746668216516202,26.7645988909969,22.102378392512794,28.214573821974557,19.968755615850384C29.998104125917504,17.344309635398513,31.636869031210956,14.23160062410327,31.025390510567014,11.117954679525774C30.39157532758821,7.890570548329539,27.953235859424787,5.06162936016693,25.001917466796254,3.6099235491279753C22.241601669728738,2.2521688274028673,19.059984429625196,3.412031070062953,16,3.727207963820547C13.310218077550754,4.0042541811134615,10.313542542563143,3.585929589245806,8.251570052452296,5.335201108157934C6.2307408743569175,7.049568755050649,5.932961739359272,9.980518564142562,5.539654438839088,12.601227697776364C5.20381596019871,14.839007081058753,5.885428757436798,16.948733651414845,6.171780388607987,19.193382130643784C6.545553409857526,22.123307971446877,5.424993495206543,25.60896256528111,7.470840885186854,27.739380402450728C9.528644648542477,29.882248860928353,13.107292330897529,30.105138940020453,16,29.427876878529787" fill="#ff9a05" strokewidth="0"/>

</g>

<g id="SVGRepo_tracerCarrier" stroke-linecap="round" stroke-linejoin="round" stroke="#CCCCCC" stroke-width="8.367588"/>

<g id="SVGRepo_iconCarrier"> <path d="M464.287,144.557c-0.888-2.354-2.72-4.229-5.054-5.17l-39.207-15.818c-2.436-12.666-12.056-22.81-24.436-26.008 l-2.115-24.363c-0.309-3.565-2.702-6.608-6.093-7.751c-3.393-1.143-7.138-0.167-9.541,2.484l-10.062,11.099l-6.219-21.766 c-1.072-3.752-4.441-6.386-8.341-6.522c-3.905-0.131-7.443,2.258-8.774,5.928l-46.469,128.196l-171.982,8.029 c-0.072,0.003-0.145,0.006-0.216,0.01c-35.304,2.12-68.734-16.766-85.167-48.119c-2.308-4.403-7.748-6.103-12.149-3.794 c-4.403,2.308-6.101,7.747-3.794,12.149c14.602,27.861,40.393,47.517,70,54.804c-1.051,0.928-2.108,1.906-3.168,2.951 c-11.295,11.142-24.777,31.506-26.736,66.093l-38.965,17.114c-2.276,0.999-4.037,2.896-4.866,5.239L0.516,357.071 c-1.447,4.093,0.233,8.635,3.995,10.801l9.804,5.643c1.382,0.796,2.932,1.2,4.491,1.2c1.05,0,2.104-0.184,3.112-0.555 c2.504-0.923,4.47-2.91,5.366-5.425l14.499-40.702l34.982-2.895l-10.63,14.438c-1.474,2.002-2.054,4.524-1.603,6.968l11.105,60.217 c0.787,4.269,4.51,7.368,8.851,7.368H95.8c2.669,0,5.201-1.185,6.911-3.234c1.71-2.05,2.422-4.753,1.944-7.378l-7.739-42.508 l75.108-51.97c0.232-0.16-0.216,0.181,0,0c7.114-5.975,12.278-12.556,15.972-19.323c37.819,6.639,90.655,16.078,124.726,21.598 c0.455,0.209-0.492-0.132,0,0l70.599,96.525c1.745,2.386,4.475,3.688,7.269,3.688c1.394,0,2.804-0.324,4.115-0.999l8.274-4.261 c2.122-1.093,3.723-2.984,4.451-5.257c0.728-2.273,0.523-4.743-0.57-6.865l-36.604-71.082l37.519,7.635l-0.904,12.991 c-0.229,3.304,1.374,6.468,4.175,8.236l5.521,3.484c1.454,0.917,3.122,1.389,4.804,1.389c0.921,0,1.847-0.142,2.743-0.428 c2.534-0.811,4.579-2.702,5.586-5.164l12.897-31.528c0.945-2.31,0.888-4.91-0.157-7.176c-1.045-2.267-2.985-3.997-5.355-4.779 l-67.772-23.32c0.065-0.299,20.217-93.312,20.217-93.312c3.762,0.627,7.561,0.957,11.388,0.957 c26.357,0,50.493-15.431,62.988-40.271C465.037,149.529,465.175,146.911,464.287,144.557z"/> </g>

</svg>